<mxfile host="app.diagrams.net" agent="Mozilla/5.0 (Windows NT 10.0; Win64; x64) AppleWebKit/537.36 (KHTML, like Gecko) Chrome/129.0.0.0 Safari/537.36" version="24.7.17" pages="2">
  <diagram id="C5RBs43oDa-KdzZeNtuy" name="Page-1">
    <mxGraphModel dx="2123" dy="714" grid="1" gridSize="10" guides="1" tooltips="1" connect="1" arrows="1" fold="1" page="1" pageScale="1" pageWidth="827" pageHeight="1169" math="0" shadow="0">
      <root>
        <mxCell id="WIyWlLk6GJQsqaUBKTNV-0" />
        <mxCell id="WIyWlLk6GJQsqaUBKTNV-1" parent="WIyWlLk6GJQsqaUBKTNV-0" />
        <mxCell id="WIyWlLk6GJQsqaUBKTNV-2" value="" style="rounded=0;html=1;jettySize=auto;orthogonalLoop=1;fontSize=11;endArrow=block;endFill=0;endSize=8;strokeWidth=1;shadow=0;labelBackgroundColor=none;edgeStyle=orthogonalEdgeStyle;" parent="WIyWlLk6GJQsqaUBKTNV-1" edge="1">
          <mxGeometry relative="1" as="geometry">
            <mxPoint x="-26" y="415" as="sourcePoint" />
            <mxPoint x="34" y="415" as="targetPoint" />
          </mxGeometry>
        </mxCell>
        <mxCell id="WIyWlLk6GJQsqaUBKTNV-7" value="Esperando por tag" style="rounded=1;whiteSpace=wrap;html=1;fontSize=12;glass=0;strokeWidth=1;shadow=0;" parent="WIyWlLk6GJQsqaUBKTNV-1" vertex="1">
          <mxGeometry x="34" y="395" width="120" height="40" as="geometry" />
        </mxCell>
        <mxCell id="WIyWlLk6GJQsqaUBKTNV-10" value="¿Tag detectado?" style="rhombus;whiteSpace=wrap;html=1;shadow=0;fontFamily=Helvetica;fontSize=12;align=center;strokeWidth=1;spacing=6;spacingTop=-4;" parent="WIyWlLk6GJQsqaUBKTNV-1" vertex="1">
          <mxGeometry x="214" y="370" width="110" height="90" as="geometry" />
        </mxCell>
        <mxCell id="WgCrSwJNk1C0Lviw78UZ-2" value="" style="rounded=0;html=1;jettySize=auto;orthogonalLoop=1;fontSize=11;endArrow=block;endFill=0;endSize=8;strokeWidth=1;shadow=0;labelBackgroundColor=none;edgeStyle=orthogonalEdgeStyle;" edge="1" parent="WIyWlLk6GJQsqaUBKTNV-1">
          <mxGeometry relative="1" as="geometry">
            <mxPoint x="494" y="414.58" as="sourcePoint" />
            <mxPoint x="570" y="415" as="targetPoint" />
          </mxGeometry>
        </mxCell>
        <mxCell id="WgCrSwJNk1C0Lviw78UZ-28" style="edgeStyle=none;curved=1;rounded=0;orthogonalLoop=1;jettySize=auto;html=1;exitX=0.5;exitY=0;exitDx=0;exitDy=0;entryX=0.5;entryY=1;entryDx=0;entryDy=0;fontSize=12;startSize=8;endSize=8;" edge="1" parent="WIyWlLk6GJQsqaUBKTNV-1" source="WgCrSwJNk1C0Lviw78UZ-3" target="WgCrSwJNk1C0Lviw78UZ-8">
          <mxGeometry relative="1" as="geometry" />
        </mxCell>
        <mxCell id="WgCrSwJNk1C0Lviw78UZ-3" value="¿Tag autorizado?" style="rhombus;whiteSpace=wrap;html=1;shadow=0;fontFamily=Helvetica;fontSize=12;align=center;strokeWidth=1;spacing=6;spacingTop=-4;" vertex="1" parent="WIyWlLk6GJQsqaUBKTNV-1">
          <mxGeometry x="384" y="370" width="110" height="90" as="geometry" />
        </mxCell>
        <mxCell id="WgCrSwJNk1C0Lviw78UZ-5" value="Inicio" style="ellipse;whiteSpace=wrap;html=1;" vertex="1" parent="WIyWlLk6GJQsqaUBKTNV-1">
          <mxGeometry x="-120" y="390" width="100" height="50" as="geometry" />
        </mxCell>
        <mxCell id="WgCrSwJNk1C0Lviw78UZ-7" value="" style="rounded=0;html=1;jettySize=auto;orthogonalLoop=1;fontSize=11;endArrow=block;endFill=0;endSize=8;strokeWidth=1;shadow=0;labelBackgroundColor=none;edgeStyle=orthogonalEdgeStyle;exitX=0.5;exitY=0;exitDx=0;exitDy=0;entryX=0.5;entryY=0;entryDx=0;entryDy=0;" edge="1" parent="WIyWlLk6GJQsqaUBKTNV-1" source="WIyWlLk6GJQsqaUBKTNV-10" target="WIyWlLk6GJQsqaUBKTNV-7">
          <mxGeometry relative="1" as="geometry">
            <mxPoint x="263.99999999999994" y="340" as="sourcePoint" />
            <mxPoint x="74" y="270" as="targetPoint" />
            <Array as="points">
              <mxPoint x="269" y="340" />
              <mxPoint x="94" y="340" />
            </Array>
          </mxGeometry>
        </mxCell>
        <mxCell id="WgCrSwJNk1C0Lviw78UZ-8" value="Acceso denegado, sin arranque" style="rounded=1;whiteSpace=wrap;html=1;fontSize=12;glass=0;strokeWidth=1;shadow=0;" vertex="1" parent="WIyWlLk6GJQsqaUBKTNV-1">
          <mxGeometry x="379" y="270" width="120" height="40" as="geometry" />
        </mxCell>
        <mxCell id="WgCrSwJNk1C0Lviw78UZ-10" value="Si" style="text;html=1;align=center;verticalAlign=middle;whiteSpace=wrap;rounded=0;fontSize=16;" vertex="1" parent="WIyWlLk6GJQsqaUBKTNV-1">
          <mxGeometry x="319" y="380" width="60" height="30" as="geometry" />
        </mxCell>
        <mxCell id="WgCrSwJNk1C0Lviw78UZ-12" value="No" style="text;html=1;align=center;verticalAlign=middle;whiteSpace=wrap;rounded=0;fontSize=16;" vertex="1" parent="WIyWlLk6GJQsqaUBKTNV-1">
          <mxGeometry x="740" y="330" width="60" height="30" as="geometry" />
        </mxCell>
        <mxCell id="WgCrSwJNk1C0Lviw78UZ-13" value="Si" style="text;html=1;align=center;verticalAlign=middle;whiteSpace=wrap;rounded=0;fontSize=16;" vertex="1" parent="WIyWlLk6GJQsqaUBKTNV-1">
          <mxGeometry x="494" y="380" width="60" height="30" as="geometry" />
        </mxCell>
        <mxCell id="WgCrSwJNk1C0Lviw78UZ-14" value="No" style="text;html=1;align=center;verticalAlign=middle;whiteSpace=wrap;rounded=0;fontSize=16;" vertex="1" parent="WIyWlLk6GJQsqaUBKTNV-1">
          <mxGeometry x="154" y="310" width="60" height="30" as="geometry" />
        </mxCell>
        <mxCell id="WgCrSwJNk1C0Lviw78UZ-17" value="Motor sigue encendido" style="rounded=1;whiteSpace=wrap;html=1;fontSize=12;glass=0;strokeWidth=1;shadow=0;" vertex="1" parent="WIyWlLk6GJQsqaUBKTNV-1">
          <mxGeometry x="570" y="395" width="120" height="40" as="geometry" />
        </mxCell>
        <mxCell id="WgCrSwJNk1C0Lviw78UZ-18" value="¿Tag sigue en rango?" style="rhombus;whiteSpace=wrap;html=1;shadow=0;fontFamily=Helvetica;fontSize=12;align=center;strokeWidth=1;spacing=6;spacingTop=-4;" vertex="1" parent="WIyWlLk6GJQsqaUBKTNV-1">
          <mxGeometry x="740" y="370" width="110" height="90" as="geometry" />
        </mxCell>
        <mxCell id="WgCrSwJNk1C0Lviw78UZ-21" value="Si" style="text;html=1;align=center;verticalAlign=middle;whiteSpace=wrap;rounded=0;fontSize=16;" vertex="1" parent="WIyWlLk6GJQsqaUBKTNV-1">
          <mxGeometry x="680" y="470" width="60" height="30" as="geometry" />
        </mxCell>
        <mxCell id="WgCrSwJNk1C0Lviw78UZ-22" value="Corta la corriente y detener" style="rounded=1;whiteSpace=wrap;html=1;fontSize=12;glass=0;strokeWidth=1;shadow=0;" vertex="1" parent="WIyWlLk6GJQsqaUBKTNV-1">
          <mxGeometry x="730" y="270" width="120" height="40" as="geometry" />
        </mxCell>
        <mxCell id="WgCrSwJNk1C0Lviw78UZ-26" value="" style="rounded=0;html=1;jettySize=auto;orthogonalLoop=1;fontSize=11;endArrow=block;endFill=0;endSize=8;strokeWidth=1;shadow=0;labelBackgroundColor=none;edgeStyle=orthogonalEdgeStyle;" edge="1" parent="WIyWlLk6GJQsqaUBKTNV-1">
          <mxGeometry relative="1" as="geometry">
            <mxPoint x="154" y="414.64" as="sourcePoint" />
            <mxPoint x="214" y="414.64" as="targetPoint" />
          </mxGeometry>
        </mxCell>
        <mxCell id="WgCrSwJNk1C0Lviw78UZ-27" value="" style="rounded=0;html=1;jettySize=auto;orthogonalLoop=1;fontSize=11;endArrow=block;endFill=0;endSize=8;strokeWidth=1;shadow=0;labelBackgroundColor=none;edgeStyle=orthogonalEdgeStyle;" edge="1" parent="WIyWlLk6GJQsqaUBKTNV-1">
          <mxGeometry relative="1" as="geometry">
            <mxPoint x="324" y="414.71" as="sourcePoint" />
            <mxPoint x="384" y="414.71" as="targetPoint" />
          </mxGeometry>
        </mxCell>
        <mxCell id="WgCrSwJNk1C0Lviw78UZ-30" value="" style="rounded=0;html=1;jettySize=auto;orthogonalLoop=1;fontSize=11;endArrow=block;endFill=0;endSize=8;strokeWidth=1;shadow=0;labelBackgroundColor=none;edgeStyle=orthogonalEdgeStyle;entryX=0.414;entryY=0.013;entryDx=0;entryDy=0;entryPerimeter=0;" edge="1" parent="WIyWlLk6GJQsqaUBKTNV-1" target="WIyWlLk6GJQsqaUBKTNV-7">
          <mxGeometry relative="1" as="geometry">
            <mxPoint x="378" y="285" as="sourcePoint" />
            <mxPoint x="178" y="340" as="targetPoint" />
            <Array as="points">
              <mxPoint x="84" y="285" />
            </Array>
          </mxGeometry>
        </mxCell>
        <mxCell id="WgCrSwJNk1C0Lviw78UZ-32" value="" style="rounded=0;html=1;jettySize=auto;orthogonalLoop=1;fontSize=11;endArrow=block;endFill=0;endSize=8;strokeWidth=1;shadow=0;labelBackgroundColor=none;edgeStyle=orthogonalEdgeStyle;" edge="1" parent="WIyWlLk6GJQsqaUBKTNV-1">
          <mxGeometry relative="1" as="geometry">
            <mxPoint x="690" y="414.53999999999996" as="sourcePoint" />
            <mxPoint x="740" y="415" as="targetPoint" />
          </mxGeometry>
        </mxCell>
        <mxCell id="WgCrSwJNk1C0Lviw78UZ-33" style="edgeStyle=none;curved=1;rounded=0;orthogonalLoop=1;jettySize=auto;html=1;exitX=0.5;exitY=0;exitDx=0;exitDy=0;entryX=0.553;entryY=0.971;entryDx=0;entryDy=0;entryPerimeter=0;fontSize=12;startSize=8;endSize=8;" edge="1" parent="WIyWlLk6GJQsqaUBKTNV-1" source="WgCrSwJNk1C0Lviw78UZ-18" target="WgCrSwJNk1C0Lviw78UZ-22">
          <mxGeometry relative="1" as="geometry" />
        </mxCell>
        <mxCell id="WgCrSwJNk1C0Lviw78UZ-35" value="" style="rounded=0;html=1;jettySize=auto;orthogonalLoop=1;fontSize=11;endArrow=block;endFill=0;endSize=8;strokeWidth=1;shadow=0;labelBackgroundColor=none;edgeStyle=orthogonalEdgeStyle;exitX=0.5;exitY=0;exitDx=0;exitDy=0;entryX=0.25;entryY=0;entryDx=0;entryDy=0;" edge="1" parent="WIyWlLk6GJQsqaUBKTNV-1" source="WgCrSwJNk1C0Lviw78UZ-22" target="WIyWlLk6GJQsqaUBKTNV-7">
          <mxGeometry relative="1" as="geometry">
            <mxPoint x="364" y="234.5" as="sourcePoint" />
            <mxPoint x="70" y="390" as="targetPoint" />
            <Array as="points">
              <mxPoint x="790" y="260" />
              <mxPoint x="64" y="260" />
            </Array>
          </mxGeometry>
        </mxCell>
        <mxCell id="WgCrSwJNk1C0Lviw78UZ-36" value="No" style="text;html=1;align=center;verticalAlign=middle;whiteSpace=wrap;rounded=0;fontSize=16;" vertex="1" parent="WIyWlLk6GJQsqaUBKTNV-1">
          <mxGeometry x="390" y="320" width="60" height="30" as="geometry" />
        </mxCell>
        <mxCell id="WgCrSwJNk1C0Lviw78UZ-37" value="" style="rounded=0;html=1;jettySize=auto;orthogonalLoop=1;fontSize=11;endArrow=block;endFill=0;endSize=8;strokeWidth=1;shadow=0;labelBackgroundColor=none;edgeStyle=orthogonalEdgeStyle;exitX=0.5;exitY=1;exitDx=0;exitDy=0;entryX=0.453;entryY=0.996;entryDx=0;entryDy=0;entryPerimeter=0;" edge="1" parent="WIyWlLk6GJQsqaUBKTNV-1" source="WgCrSwJNk1C0Lviw78UZ-18" target="WgCrSwJNk1C0Lviw78UZ-17">
          <mxGeometry relative="1" as="geometry">
            <mxPoint x="800" y="530" as="sourcePoint" />
            <mxPoint x="640" y="470" as="targetPoint" />
            <Array as="points">
              <mxPoint x="795" y="500" />
              <mxPoint x="625" y="500" />
              <mxPoint x="625" y="470" />
              <mxPoint x="624" y="470" />
            </Array>
          </mxGeometry>
        </mxCell>
      </root>
    </mxGraphModel>
  </diagram>
  <diagram name="Copia de Page-1" id="m-dnNXUPtFriOFT18c0i">
    <mxGraphModel dx="2576" dy="1734" grid="1" gridSize="10" guides="1" tooltips="1" connect="1" arrows="1" fold="1" page="1" pageScale="1" pageWidth="827" pageHeight="1169" math="0" shadow="0">
      <root>
        <mxCell id="1t54YwXjaeA_7Rw2D39V-0" />
        <mxCell id="1t54YwXjaeA_7Rw2D39V-1" parent="1t54YwXjaeA_7Rw2D39V-0" />
        <mxCell id="1t54YwXjaeA_7Rw2D39V-2" value="" style="rounded=0;html=1;jettySize=auto;orthogonalLoop=1;fontSize=11;endArrow=block;endFill=0;endSize=8;strokeWidth=1;shadow=0;labelBackgroundColor=none;edgeStyle=orthogonalEdgeStyle;" edge="1" parent="1t54YwXjaeA_7Rw2D39V-1">
          <mxGeometry relative="1" as="geometry">
            <mxPoint x="-676" y="415" as="sourcePoint" />
            <mxPoint x="-616" y="415" as="targetPoint" />
          </mxGeometry>
        </mxCell>
        <mxCell id="1t54YwXjaeA_7Rw2D39V-8" value="Inicio" style="ellipse;whiteSpace=wrap;html=1;" vertex="1" parent="1t54YwXjaeA_7Rw2D39V-1">
          <mxGeometry x="-770" y="390" width="100" height="50" as="geometry" />
        </mxCell>
        <mxCell id="1t54YwXjaeA_7Rw2D39V-26" value="" style="rounded=0;html=1;jettySize=auto;orthogonalLoop=1;fontSize=11;endArrow=block;endFill=0;endSize=8;strokeWidth=1;shadow=0;labelBackgroundColor=none;edgeStyle=orthogonalEdgeStyle;exitX=0.5;exitY=1;exitDx=0;exitDy=0;entryX=0.453;entryY=0.996;entryDx=0;entryDy=0;entryPerimeter=0;" edge="1" parent="1t54YwXjaeA_7Rw2D39V-1" source="1t54YwXjaeA_7Rw2D39V-16">
          <mxGeometry relative="1" as="geometry">
            <mxPoint x="800" y="530" as="sourcePoint" />
            <mxPoint x="624.3600000000001" y="434.8399999999999" as="targetPoint" />
            <Array as="points">
              <mxPoint x="795" y="500" />
              <mxPoint x="625" y="500" />
              <mxPoint x="625" y="470" />
              <mxPoint x="624" y="470" />
            </Array>
          </mxGeometry>
        </mxCell>
        <mxCell id="OhXqeRIGOG2deTX80ve6-9" value="Si" style="text;html=1;align=center;verticalAlign=middle;whiteSpace=wrap;rounded=0;fontSize=16;" vertex="1" parent="1t54YwXjaeA_7Rw2D39V-1">
          <mxGeometry x="-510" y="390" width="60" height="30" as="geometry" />
        </mxCell>
        <mxCell id="OhXqeRIGOG2deTX80ve6-27" value="¿Primera ejecución?" style="rhombus;whiteSpace=wrap;html=1;shadow=0;fontFamily=Helvetica;fontSize=12;align=center;strokeWidth=1;spacing=6;spacingTop=-4;" vertex="1" parent="1t54YwXjaeA_7Rw2D39V-1">
          <mxGeometry x="-610" y="370" width="110" height="90" as="geometry" />
        </mxCell>
        <mxCell id="OhXqeRIGOG2deTX80ve6-29" value="" style="rounded=0;html=1;jettySize=auto;orthogonalLoop=1;fontSize=11;endArrow=block;endFill=0;endSize=8;strokeWidth=1;shadow=0;labelBackgroundColor=none;edgeStyle=orthogonalEdgeStyle;exitX=0.5;exitY=0;exitDx=0;exitDy=0;entryX=0.5;entryY=0;entryDx=0;entryDy=0;" edge="1" parent="1t54YwXjaeA_7Rw2D39V-1" source="OhXqeRIGOG2deTX80ve6-43">
          <mxGeometry relative="1" as="geometry">
            <mxPoint x="326" y="370" as="sourcePoint" />
            <mxPoint x="151" y="395" as="targetPoint" />
            <Array as="points">
              <mxPoint x="284" y="340" />
              <mxPoint x="151" y="340" />
            </Array>
          </mxGeometry>
        </mxCell>
        <mxCell id="OhXqeRIGOG2deTX80ve6-30" value="No" style="text;html=1;align=center;verticalAlign=middle;whiteSpace=wrap;rounded=0;fontSize=16;" vertex="1" parent="1t54YwXjaeA_7Rw2D39V-1">
          <mxGeometry x="187" y="340" width="60" height="30" as="geometry" />
        </mxCell>
        <mxCell id="OhXqeRIGOG2deTX80ve6-32" value="" style="rounded=0;html=1;jettySize=auto;orthogonalLoop=1;fontSize=11;endArrow=block;endFill=0;endSize=8;strokeWidth=1;shadow=0;labelBackgroundColor=none;edgeStyle=orthogonalEdgeStyle;" edge="1" parent="1t54YwXjaeA_7Rw2D39V-1">
          <mxGeometry relative="1" as="geometry">
            <mxPoint x="330" y="409.79999999999995" as="sourcePoint" />
            <mxPoint x="390" y="409.79999999999995" as="targetPoint" />
            <Array as="points">
              <mxPoint x="351" y="410.14" />
              <mxPoint x="351" y="410.14" />
            </Array>
          </mxGeometry>
        </mxCell>
        <mxCell id="OhXqeRIGOG2deTX80ve6-33" value="Si" style="text;html=1;align=center;verticalAlign=middle;whiteSpace=wrap;rounded=0;fontSize=16;" vertex="1" parent="1t54YwXjaeA_7Rw2D39V-1">
          <mxGeometry x="324" y="380" width="60" height="30" as="geometry" />
        </mxCell>
        <mxCell id="OhXqeRIGOG2deTX80ve6-35" value="Inicialización LoRaWAN" style="rounded=1;whiteSpace=wrap;html=1;fontSize=12;glass=0;strokeWidth=1;shadow=0;" vertex="1" parent="1t54YwXjaeA_7Rw2D39V-1">
          <mxGeometry x="-440" y="395" width="120" height="40" as="geometry" />
        </mxCell>
        <mxCell id="OhXqeRIGOG2deTX80ve6-40" value="Esperar siguiente ciclo" style="rounded=1;whiteSpace=wrap;html=1;fontSize=12;glass=0;strokeWidth=1;shadow=0;" vertex="1" parent="1t54YwXjaeA_7Rw2D39V-1">
          <mxGeometry x="57" y="395" width="120" height="40" as="geometry" />
        </mxCell>
        <mxCell id="OhXqeRIGOG2deTX80ve6-41" value="" style="rounded=0;html=1;jettySize=auto;orthogonalLoop=1;fontSize=11;endArrow=block;endFill=0;endSize=8;strokeWidth=1;shadow=0;labelBackgroundColor=none;edgeStyle=orthogonalEdgeStyle;entryX=0;entryY=0.5;entryDx=0;entryDy=0;" edge="1" parent="1t54YwXjaeA_7Rw2D39V-1" target="OhXqeRIGOG2deTX80ve6-40">
          <mxGeometry relative="1" as="geometry">
            <mxPoint x="-10" y="414.71" as="sourcePoint" />
            <mxPoint x="50" y="414.71" as="targetPoint" />
          </mxGeometry>
        </mxCell>
        <mxCell id="OhXqeRIGOG2deTX80ve6-43" value="¿GPS ajustado?" style="rhombus;whiteSpace=wrap;html=1;shadow=0;fontFamily=Helvetica;fontSize=12;align=center;strokeWidth=1;spacing=6;spacingTop=-4;" vertex="1" parent="1t54YwXjaeA_7Rw2D39V-1">
          <mxGeometry x="237" y="370" width="93" height="80" as="geometry" />
        </mxCell>
        <mxCell id="OhXqeRIGOG2deTX80ve6-47" value="" style="rounded=0;html=1;jettySize=auto;orthogonalLoop=1;fontSize=11;endArrow=block;endFill=0;endSize=8;strokeWidth=1;shadow=0;labelBackgroundColor=none;edgeStyle=orthogonalEdgeStyle;" edge="1" parent="1t54YwXjaeA_7Rw2D39V-1">
          <mxGeometry relative="1" as="geometry">
            <mxPoint x="177" y="410" as="sourcePoint" />
            <mxPoint x="237" y="410" as="targetPoint" />
          </mxGeometry>
        </mxCell>
        <mxCell id="OhXqeRIGOG2deTX80ve6-48" value="Preparar datos GPS" style="rounded=1;whiteSpace=wrap;html=1;fontSize=12;glass=0;strokeWidth=1;shadow=0;" vertex="1" parent="1t54YwXjaeA_7Rw2D39V-1">
          <mxGeometry x="390" y="390" width="120" height="40" as="geometry" />
        </mxCell>
        <mxCell id="OhXqeRIGOG2deTX80ve6-49" value="Enviar Datos" style="rounded=1;whiteSpace=wrap;html=1;fontSize=12;glass=0;strokeWidth=1;shadow=0;" vertex="1" parent="1t54YwXjaeA_7Rw2D39V-1">
          <mxGeometry x="559" y="390" width="77" height="40" as="geometry" />
        </mxCell>
        <mxCell id="OhXqeRIGOG2deTX80ve6-51" value="" style="rounded=0;html=1;jettySize=auto;orthogonalLoop=1;fontSize=11;endArrow=block;endFill=0;endSize=8;strokeWidth=1;shadow=0;labelBackgroundColor=none;edgeStyle=orthogonalEdgeStyle;" edge="1" parent="1t54YwXjaeA_7Rw2D39V-1">
          <mxGeometry relative="1" as="geometry">
            <mxPoint x="510" y="410" as="sourcePoint" />
            <mxPoint x="557" y="410" as="targetPoint" />
          </mxGeometry>
        </mxCell>
        <mxCell id="OhXqeRIGOG2deTX80ve6-56" value="Programar próxima transmisión" style="rounded=1;whiteSpace=wrap;html=1;fontSize=12;glass=0;strokeWidth=1;shadow=0;" vertex="1" parent="1t54YwXjaeA_7Rw2D39V-1">
          <mxGeometry x="686" y="390" width="111" height="40" as="geometry" />
        </mxCell>
        <mxCell id="OhXqeRIGOG2deTX80ve6-57" value="" style="rounded=0;html=1;jettySize=auto;orthogonalLoop=1;fontSize=11;endArrow=block;endFill=0;endSize=8;strokeWidth=1;shadow=0;labelBackgroundColor=none;edgeStyle=orthogonalEdgeStyle;" edge="1" parent="1t54YwXjaeA_7Rw2D39V-1">
          <mxGeometry relative="1" as="geometry">
            <mxPoint x="637" y="410" as="sourcePoint" />
            <mxPoint x="684" y="410" as="targetPoint" />
          </mxGeometry>
        </mxCell>
        <mxCell id="OhXqeRIGOG2deTX80ve6-58" value="Entrar en modo sueño" style="rounded=1;whiteSpace=wrap;html=1;fontSize=12;glass=0;strokeWidth=1;shadow=0;" vertex="1" parent="1t54YwXjaeA_7Rw2D39V-1">
          <mxGeometry x="542" y="480" width="111" height="40" as="geometry" />
        </mxCell>
        <mxCell id="OhXqeRIGOG2deTX80ve6-59" value="" style="rounded=0;html=1;jettySize=auto;orthogonalLoop=1;fontSize=11;endArrow=block;endFill=0;endSize=8;strokeWidth=1;shadow=0;labelBackgroundColor=none;edgeStyle=orthogonalEdgeStyle;exitX=0.5;exitY=1;exitDx=0;exitDy=0;entryX=1;entryY=0.5;entryDx=0;entryDy=0;" edge="1" parent="1t54YwXjaeA_7Rw2D39V-1" source="OhXqeRIGOG2deTX80ve6-56" target="OhXqeRIGOG2deTX80ve6-58">
          <mxGeometry relative="1" as="geometry">
            <mxPoint x="797" y="570" as="sourcePoint" />
            <mxPoint x="664" y="595" as="targetPoint" />
            <Array as="points">
              <mxPoint x="742" y="500" />
            </Array>
          </mxGeometry>
        </mxCell>
        <mxCell id="OhXqeRIGOG2deTX80ve6-60" value="" style="rounded=0;html=1;jettySize=auto;orthogonalLoop=1;fontSize=11;endArrow=block;endFill=0;endSize=8;strokeWidth=1;shadow=0;labelBackgroundColor=none;edgeStyle=orthogonalEdgeStyle;exitX=-0.048;exitY=0.488;exitDx=0;exitDy=0;exitPerimeter=0;" edge="1" parent="1t54YwXjaeA_7Rw2D39V-1" source="OhXqeRIGOG2deTX80ve6-58">
          <mxGeometry relative="1" as="geometry">
            <mxPoint x="445" y="470" as="sourcePoint" />
            <mxPoint x="107" y="440" as="targetPoint" />
            <Array as="points">
              <mxPoint x="445" y="500" />
              <mxPoint x="107" y="500" />
            </Array>
          </mxGeometry>
        </mxCell>
        <mxCell id="OhXqeRIGOG2deTX80ve6-62" value="" style="rounded=0;html=1;jettySize=auto;orthogonalLoop=1;fontSize=11;endArrow=block;endFill=0;endSize=8;strokeWidth=1;shadow=0;labelBackgroundColor=none;edgeStyle=orthogonalEdgeStyle;" edge="1" parent="1t54YwXjaeA_7Rw2D39V-1">
          <mxGeometry relative="1" as="geometry">
            <mxPoint x="-500" y="414.72" as="sourcePoint" />
            <mxPoint x="-440" y="414.72" as="targetPoint" />
          </mxGeometry>
        </mxCell>
        <mxCell id="OhXqeRIGOG2deTX80ve6-63" value="Intenta unirse a la red&amp;nbsp;" style="rounded=1;whiteSpace=wrap;html=1;fontSize=12;glass=0;strokeWidth=1;shadow=0;" vertex="1" parent="1t54YwXjaeA_7Rw2D39V-1">
          <mxGeometry x="-280" y="395" width="120" height="40" as="geometry" />
        </mxCell>
        <mxCell id="OhXqeRIGOG2deTX80ve6-64" value="¿Se unió a la red ?" style="rhombus;whiteSpace=wrap;html=1;shadow=0;fontFamily=Helvetica;fontSize=12;align=center;strokeWidth=1;spacing=6;spacingTop=-4;" vertex="1" parent="1t54YwXjaeA_7Rw2D39V-1">
          <mxGeometry x="-110" y="372.5" width="100" height="85" as="geometry" />
        </mxCell>
        <mxCell id="OhXqeRIGOG2deTX80ve6-66" value="" style="rounded=0;html=1;jettySize=auto;orthogonalLoop=1;fontSize=11;endArrow=block;endFill=0;endSize=8;strokeWidth=1;shadow=0;labelBackgroundColor=none;edgeStyle=orthogonalEdgeStyle;entryX=0;entryY=0.5;entryDx=0;entryDy=0;" edge="1" parent="1t54YwXjaeA_7Rw2D39V-1" target="OhXqeRIGOG2deTX80ve6-63">
          <mxGeometry relative="1" as="geometry">
            <mxPoint x="-320" y="414.81" as="sourcePoint" />
            <mxPoint x="-260" y="414.81" as="targetPoint" />
          </mxGeometry>
        </mxCell>
        <mxCell id="OhXqeRIGOG2deTX80ve6-68" value="" style="rounded=0;html=1;jettySize=auto;orthogonalLoop=1;fontSize=11;endArrow=block;endFill=0;endSize=8;strokeWidth=1;shadow=0;labelBackgroundColor=none;edgeStyle=orthogonalEdgeStyle;" edge="1" parent="1t54YwXjaeA_7Rw2D39V-1">
          <mxGeometry relative="1" as="geometry">
            <mxPoint x="-160" y="414.81" as="sourcePoint" />
            <mxPoint x="-110" y="415" as="targetPoint" />
          </mxGeometry>
        </mxCell>
        <mxCell id="OhXqeRIGOG2deTX80ve6-69" value="" style="rounded=0;html=1;jettySize=auto;orthogonalLoop=1;fontSize=11;endArrow=block;endFill=0;endSize=8;strokeWidth=1;shadow=0;labelBackgroundColor=none;edgeStyle=orthogonalEdgeStyle;exitX=0.5;exitY=1;exitDx=0;exitDy=0;entryX=0.5;entryY=1;entryDx=0;entryDy=0;" edge="1" parent="1t54YwXjaeA_7Rw2D39V-1" target="OhXqeRIGOG2deTX80ve6-63">
          <mxGeometry relative="1" as="geometry">
            <mxPoint x="-61" y="457.5" as="sourcePoint" />
            <mxPoint x="-150" y="527.5" as="targetPoint" />
            <Array as="points">
              <mxPoint x="-61" y="470" />
              <mxPoint x="-220" y="470" />
            </Array>
          </mxGeometry>
        </mxCell>
        <mxCell id="OhXqeRIGOG2deTX80ve6-70" value="No" style="text;html=1;align=center;verticalAlign=middle;whiteSpace=wrap;rounded=0;fontSize=16;" vertex="1" parent="1t54YwXjaeA_7Rw2D39V-1">
          <mxGeometry x="-180" y="440" width="60" height="30" as="geometry" />
        </mxCell>
        <mxCell id="OhXqeRIGOG2deTX80ve6-73" value="Si" style="text;html=1;align=center;verticalAlign=middle;whiteSpace=wrap;rounded=0;fontSize=16;" vertex="1" parent="1t54YwXjaeA_7Rw2D39V-1">
          <mxGeometry x="-10" y="380" width="60" height="30" as="geometry" />
        </mxCell>
        <mxCell id="OhXqeRIGOG2deTX80ve6-74" value="" style="rounded=0;html=1;jettySize=auto;orthogonalLoop=1;fontSize=11;endArrow=block;endFill=0;endSize=8;strokeWidth=1;shadow=0;labelBackgroundColor=none;edgeStyle=orthogonalEdgeStyle;exitX=0.5;exitY=1;exitDx=0;exitDy=0;" edge="1" parent="1t54YwXjaeA_7Rw2D39V-1">
          <mxGeometry relative="1" as="geometry">
            <mxPoint x="-560" y="459.9999999999999" as="sourcePoint" />
            <mxPoint x="80" y="440" as="targetPoint" />
            <Array as="points">
              <mxPoint x="-560" y="500" />
              <mxPoint x="80" y="500" />
            </Array>
          </mxGeometry>
        </mxCell>
        <mxCell id="OhXqeRIGOG2deTX80ve6-75" value="No" style="text;html=1;align=center;verticalAlign=middle;whiteSpace=wrap;rounded=0;fontSize=16;" vertex="1" parent="1t54YwXjaeA_7Rw2D39V-1">
          <mxGeometry x="-540" y="470" width="60" height="30" as="geometry" />
        </mxCell>
      </root>
    </mxGraphModel>
  </diagram>
</mxfile>
